<svg width="4" height="15" viewBox="0 0 4 15" fill="none" xmlns="http://www.w3.org/2000/svg">
<path d="M0.607605 2.04492C0.607605 1.64492 0.749272 1.30325 1.03261 1.01992C1.31594 0.736588 1.65761 0.594921 2.05761 0.594921C2.47427 0.594921 2.82427 0.736588 3.10761 1.01992C3.39094 1.30325 3.53261 1.64492 3.53261 2.04492C3.53261 2.44492 3.39094 2.78659 3.10761 3.06992C2.82427 3.35325 2.47427 3.49492 2.05761 3.49492C1.65761 3.49492 1.31594 3.35325 1.03261 3.06992C0.749272 2.78659 0.607605 2.44492 0.607605 2.04492ZM0.607605 12.7199C0.607605 12.3033 0.749272 11.9533 1.03261 11.6699C1.31594 11.3866 1.65761 11.2449 2.05761 11.2449C2.47427 11.2449 2.82427 11.3866 3.10761 11.6699C3.39094 11.9533 3.53261 12.3033 3.53261 12.7199C3.53261 13.1199 3.39094 13.4616 3.10761 13.7449C2.82427 14.0283 2.47427 14.1699 2.05761 14.1699C1.65761 14.1699 1.31594 14.0283 1.03261 13.7449C0.749272 13.4616 0.607605 13.1199 0.607605 12.7199Z" fill="#7A7A7A"/>
</svg>
