<svg width="86" height="16" viewBox="0 0 86 16" fill="none" xmlns="http://www.w3.org/2000/svg">
<g clip-path="url(#clip0_14341_16416)">
<path d="M7.6668 12.7025L3.2543 15.1775L4.2418 10.215L0.529297 6.78999L5.5543 6.18999L7.6668 1.60249L9.7793 6.18999L14.8043 6.78999L11.0918 10.215L12.0793 15.1775L7.6668 12.7025Z" fill="#F5885F"/>
</g>
<g clip-path="url(#clip1_14341_16416)">
<path d="M25.157 12.7025L20.7445 15.1775L21.732 10.215L18.0195 6.78999L23.0445 6.18999L25.157 1.60249L27.2695 6.18999L32.2945 6.78999L28.582 10.215L29.5695 15.1775L25.157 12.7025Z" fill="#F5885F"/>
</g>
<g clip-path="url(#clip2_14341_16416)">
<path d="M42.6375 12.7025L38.225 15.1775L39.2125 10.215L35.5 6.78999L40.525 6.18999L42.6375 1.60249L44.75 6.18999L49.775 6.78999L46.0625 10.215L47.05 15.1775L42.6375 12.7025Z" fill="#F5885F"/>
</g>
<g clip-path="url(#clip3_14341_16416)">
<path d="M60.118 12.7025L55.7055 15.1775L56.693 10.215L52.9805 6.78999L58.0055 6.18999L60.118 1.60249L62.2305 6.18999L67.2555 6.78999L63.543 10.215L64.5305 15.1775L60.118 12.7025Z" fill="#F5885F"/>
</g>
<g clip-path="url(#clip4_14341_16416)">
<path d="M77.6082 12.7025L73.1957 15.1775L74.1832 10.215L70.4707 6.78999L75.4957 6.18999L77.6082 1.60249L79.7207 6.18999L84.7457 6.78999L81.0332 10.215L82.0207 15.1775L77.6082 12.7025Z" fill="#F5885F"/>
</g>
<defs>
<clipPath id="clip0_14341_16416">
<rect width="15.48" height="15" fill="white" transform="matrix(1 0 0 -1 0.529297 15.89)"/>
</clipPath>
<clipPath id="clip1_14341_16416">
<rect width="15.48" height="15" fill="white" transform="matrix(1 0 0 -1 18.0195 15.89)"/>
</clipPath>
<clipPath id="clip2_14341_16416">
<rect width="15.48" height="15" fill="white" transform="matrix(1 0 0 -1 35.5 15.89)"/>
</clipPath>
<clipPath id="clip3_14341_16416">
<rect width="15.48" height="15" fill="white" transform="matrix(1 0 0 -1 52.9805 15.89)"/>
</clipPath>
<clipPath id="clip4_14341_16416">
<rect width="15.48" height="15" fill="white" transform="matrix(1 0 0 -1 70.4707 15.89)"/>
</clipPath>
</defs>
</svg>